Coordinates
version=1
nRows=21
nColumns=38
inDegrees=no

Units are S.I. units (second, meters, Newtons, ...)
If the header above contains a line with 'inDegrees', this indicates whether rotational values are in degrees (yes) or radians (no).

endheader
time	pelvis_tilt	pelvis_list	pelvis_rotation	pelvis_tx	pelvis_ty	pelvis_tz	hip_flexion_r	hip_adduction_r	hip_rotation_r	knee_angle_r	ankle_angle_r	subtalar_angle_r	mtp_angle_r	hip_flexion_l	hip_adduction_l	hip_rotation_l	knee_angle_l	ankle_angle_l	subtalar_angle_l	mtp_angle_l	lumbar_extension	lumbar_bending	lumbar_rotation	arm_flex_r	arm_add_r	arm_rot_r	elbow_flex_r	pro_sup_r	wrist_flex_r	wrist_dev_r	arm_flex_l	arm_add_l	arm_rot_l	elbow_flex_l	pro_sup_l	wrist_flex_l	wrist_dev_l
1.53	2.99095	1.32125	-1.29474	0.869902	1.25808	0.915704	0.131151	0.0383998	-0.375186	0.257319	-0.0404708	0	0	-0.460549	-0.161194	-0.252967	0.581458	0.0797052	0	0	-0.217084	0.0450024	-0.00481386	0.287365	-0.505316	-0.243722	1.52628	1.5708	0	0	0.346802	-0.346687	-0.24056	1.68731	1.5708	0	0
1.54	2.95704	1.31382	-1.26466	0.871921	1.27189	0.917056	0.127544	0.0471334	-0.373119	0.292065	-0.027687	0	0	-0.426367	-0.18815	-0.250931	0.665309	0.00785743	0	0	-0.222702	0.0550208	0.00232044	0.283204	-0.504795	-0.244981	1.52619	1.5708	0	0	0.34639	-0.344187	-0.240773	1.68596	1.5708	0	0
1.55	2.92028	1.30667	-1.23204	0.874085	1.28555	0.918263	0.121132	0.0586269	-0.373293	0.318104	-0.0169458	0	0	-0.387753	-0.215744	-0.244341	0.749679	-0.0740073	0	0	-0.227894	0.0656689	0.0100088	0.278658	-0.505442	-0.245828	1.52721	1.5708	0	0	0.345984	-0.34317	-0.239367	1.68691	1.5708	0	0
1.56	2.8857	1.30192	-1.20106	0.876304	1.299	0.919179	0.113329	0.0715094	-0.37394	0.334749	-0.00875736	0	0	-0.343127	-0.241285	-0.232253	0.833765	-0.16021	0	0	-0.230648	0.0747058	0.0170511	0.273583	-0.506463	-0.246479	1.52845	1.5708	0	0	0.345775	-0.343784	-0.237652	1.68937	1.5708	0	0
1.57	2.86049	1.2993	-1.17803	0.878445	1.31219	0.919926	0.10345	0.0836396	-0.373475	0.343953	-0.00257662	0	0	-0.293598	-0.26192	-0.21387	0.916379	-0.244489	0	0	-0.232256	0.0802486	0.0228037	0.268204	-0.507674	-0.247319	1.53007	1.5708	0	0	0.346822	-0.346035	-0.23475	1.69236	1.5708	0	0
1.58	2.84853	1.29859	-1.16676	0.880414	1.32512	0.920766	0.0913089	0.0930042	-0.371306	0.347698	0.00335849	0	0	-0.24081	-0.275611	-0.191141	0.995372	-0.321283	0	0	-0.233612	0.0812769	0.0272493	0.262262	-0.508448	-0.248834	1.53185	1.5708	0	0	0.349001	-0.34924	-0.231056	1.69526	1.5708	0	0
1.59	2.85002	1.29769	-1.16789	0.882239	1.33789	0.922005	0.0751523	0.0996023	-0.367555	0.347158	0.010301	0	0	-0.191024	-0.282514	-0.167539	1.06452	-0.382182	0	0	-0.236961	0.0785915	0.0310115	0.256046	-0.508763	-0.250934	1.53383	1.5708	0	0	0.35228	-0.353046	-0.226785	1.69831	1.5708	0	0
1.6	2.86079	1.29656	-1.17807	0.88386	1.35041	0.92367	0.0571758	0.103522	-0.362191	0.345316	0.0177261	0	0	-0.145527	-0.282524	-0.143268	1.12423	-0.416963	0	0	-0.24204	0.0735296	0.0346219	0.250533	-0.508921	-0.253387	1.53578	1.5708	0	0	0.356092	-0.356382	-0.222448	1.70153	1.5708	0	0
1.61	2.87214	1.29671	-1.18944	0.885244	1.36269	0.925525	0.0411074	0.105806	-0.355141	0.344159	0.0240872	0	0	-0.099853	-0.278365	-0.119057	1.18182	-0.410757	0	0	-0.245996	0.0679968	0.0383806	0.245943	-0.508733	-0.256186	1.53699	1.5708	0	0	0.359053	-0.358035	-0.219183	1.70486	1.5708	0	0
1.62	2.88404	1.29743	-1.2034	0.886477	1.37482	0.927623	0.0258171	0.106822	-0.345559	0.342884	0.0288616	0	0	-0.0543613	-0.270763	-0.0973339	1.23857	-0.363842	0	0	-0.249552	0.0624363	0.0431213	0.243187	-0.508714	-0.257937	1.53728	1.5708	0	0	0.36031	-0.357502	-0.218664	1.70851	1.5708	0	0
1.63	2.8974	1.29847	-1.22052	0.88773	1.38695	0.929993	0.00971331	0.106844	-0.335459	0.33999	0.0328361	0	0	-0.0109235	-0.260853	-0.0800665	1.28834	-0.30248	0	0	-0.252647	0.0564481	0.0484179	0.241457	-0.508216	-0.258369	1.53701	1.5708	0	0	0.359352	-0.356044	-0.220319	1.71239	1.5708	0	0
1.64	2.91272	1.2997	-1.24104	0.889059	1.39907	0.932546	-0.00789185	0.105914	-0.326307	0.334735	0.0361023	0	0	0.0294382	-0.249328	-0.0668176	1.32791	-0.247675	0	0	-0.255408	0.0496916	0.0545599	0.240219	-0.507009	-0.258771	1.53648	1.5708	0	0	0.357184	-0.35426	-0.223024	1.7156	1.5708	0	0
1.65	2.92896	1.30167	-1.26406	0.890427	1.4111	0.935108	-0.026091	0.104063	-0.318494	0.327284	0.0396631	0	0	0.0677715	-0.236868	-0.0572527	1.35801	-0.207387	0	0	-0.257258	0.0422359	0.0621971	0.238937	-0.505698	-0.259657	1.53604	1.5708	0	0	0.354785	-0.352106	-0.225479	1.71776	1.5708	0	0
1.66	2.94425	1.30423	-1.2871	0.891816	1.42296	0.937554	-0.0445174	0.10211	-0.311949	0.317823	0.0427071	0	0	0.104653	-0.224836	-0.05077	1.37992	-0.17888	0	0	-0.258273	0.0348316	0.0712552	0.236972	-0.505182	-0.260885	1.53651	1.5708	0	0	0.35284	-0.349586	-0.227376	1.71907	1.5708	0	0
1.67	2.95864	1.30764	-1.30999	0.893249	1.4347	0.939879	-0.062499	0.100211	-0.305653	0.306406	0.0452279	0	0	0.140509	-0.213459	-0.0471235	1.39396	-0.157628	0	0	-0.25805	0.0274798	0.0816509	0.233901	-0.504873	-0.262953	1.53786	1.5708	0	0	0.351352	-0.347395	-0.2275	1.7188	1.5708	0	0
1.68	2.97366	1.31153	-1.33403	0.89469	1.44635	0.942083	-0.0800193	0.0979148	-0.298865	0.294022	0.0473832	0	0	0.174727	-0.202429	-0.045947	1.40031	-0.14285	0	0	-0.257085	0.0201047	0.0929049	0.231268	-0.50537	-0.265511	1.53971	1.5708	0	0	0.350373	-0.345364	-0.227213	1.7173	1.5708	0	0
1.69	2.99015	1.31525	-1.35994	0.89615	1.45796	0.944176	-0.0973313	0.095023	-0.291438	0.282002	0.048895	0	0	0.20642	-0.19187	-0.0469845	1.39992	-0.130053	0	0	-0.256135	0.0125117	0.104589	0.229531	-0.506805	-0.267739	1.54221	1.5708	0	0	0.349918	-0.344055	-0.226328	1.71517	1.5708	0	0
1.7	3.00864	1.31855	-1.38852	0.897639	1.46951	0.94619	-0.114662	0.091441	-0.282829	0.270422	0.0507018	0	0	0.235356	-0.181901	-0.0507629	1.39315	-0.116784	0	0	-0.255616	0.00437937	0.116774	0.228688	-0.508346	-0.269902	1.54496	1.5708	0	0	0.349846	-0.343368	-0.224793	1.71283	1.5708	0	0
1.71	3.03093	1.32101	-1.42145	0.899153	1.48096	0.94818	-0.132772	0.0867975	-0.273359	0.258843	0.0527823	0	0	0.260751	-0.172169	-0.0569124	1.37997	-0.101255	0	0	-0.256191	-0.00466909	0.128762	0.22939	-0.509834	-0.271089	1.54758	1.5708	0	0	0.349947	-0.343448	-0.223406	1.71107	1.5708	0	0
1.72	3.0541	1.32335	-1.45521	0.900638	1.49236	0.950041	-0.150735	0.0817051	-0.263613	0.247229	0.0543454	0	0	0.283849	-0.163332	-0.0642483	1.36079	-0.0840772	0	0	-0.256796	-0.013769	0.139685	0.231808	-0.510987	-0.270845	1.54972	1.5708	0	0	0.349543	-0.343583	-0.223684	1.71007	1.5708	0	0
1.73	3.07427	1.32558	-1.48599	0.902055	1.5037	0.951717	-0.168433	0.0771445	-0.252936	0.235425	0.0547769	0	0	0.304882	-0.156189	-0.0722879	1.33618	-0.0654644	0	0	-0.257264	-0.0217886	0.149679	0.236105	-0.511845	-0.269265	1.55119	1.5708	0	0	0.348273	-0.342988	-0.226243	1.70939	1.5708	0	0
